<svg id="visual" viewBox="0 0 900 600" width="900" height="600" xmlns="http://www.w3.org/2000/svg" xmlns:xlink="http://www.w3.org/1999/xlink" version="1.1"><g stroke-width="1" stroke-linejoin="bevel"><path d="M453 329L420 337L477 386Z" fill="#15384f" stroke="#15384f"></path><path d="M420 337L402.7 393L477 386Z" fill="#297ea6" stroke="#297ea6"></path><path d="M402.7 393L420.7 431L477 386Z" fill="#112e42" stroke="#112e42"></path><path d="M477 386L503.3 314L453 329Z" fill="#081a28" stroke="#081a28"></path><path d="M394.7 257L357.7 336L420 337Z" fill="#081a28" stroke="#081a28"></path><path d="M394.7 257L420 337L453 329Z" fill="#00101c" stroke="#00101c"></path><path d="M420 337L357.7 336L402.7 393Z" fill="#081a28" stroke="#081a28"></path><path d="M402.7 393L341.4 441L420.7 431Z" fill="#19435d" stroke="#19435d"></path><path d="M507.3 491L538.6 399L477 386Z" fill="#205a7a" stroke="#205a7a"></path><path d="M477 386L547.3 347L503.3 314Z" fill="#081a28" stroke="#081a28"></path><path d="M538.6 399L547.3 347L477 386Z" fill="#15384f" stroke="#15384f"></path><path d="M605.6 475L546.3 397L538.6 399Z" fill="#19435d" stroke="#19435d"></path><path d="M538.6 399L546.3 397L547.3 347Z" fill="#081a28" stroke="#081a28"></path><path d="M420.7 431L451 473L477 386Z" fill="#081a28" stroke="#081a28"></path><path d="M357.7 336L337.4 379L402.7 393Z" fill="#15384f" stroke="#15384f"></path><path d="M420.7 431L376.7 505L451 473Z" fill="#15384f" stroke="#15384f"></path><path d="M583.6 267L505.3 272L503.3 314Z" fill="#205a7a" stroke="#205a7a"></path><path d="M503.3 314L505.3 272L453 329Z" fill="#277297" stroke="#277297"></path><path d="M444 223L394.7 257L453 329Z" fill="#112e42" stroke="#112e42"></path><path d="M357.7 336L295.1 358L337.4 379Z" fill="#19435d" stroke="#19435d"></path><path d="M337.4 379L341.4 441L402.7 393Z" fill="#277297" stroke="#277297"></path><path d="M613.9 405L582.6 380L546.3 397Z" fill="#297ea6" stroke="#297ea6"></path><path d="M546.3 397L582.6 380L547.3 347Z" fill="#0c2435" stroke="#0c2435"></path><path d="M547.3 347L583.6 267L503.3 314Z" fill="#112e42" stroke="#112e42"></path><path d="M432 577L507.3 491L451 473Z" fill="#205a7a" stroke="#205a7a"></path><path d="M451 473L507.3 491L477 386Z" fill="#112e42" stroke="#112e42"></path><path d="M505.3 272L444 223L453 329Z" fill="#19435d" stroke="#19435d"></path><path d="M312.4 266L295.1 358L357.7 336Z" fill="#15384f" stroke="#15384f"></path><path d="M274.1 426L293.1 458L341.4 441Z" fill="#19435d" stroke="#19435d"></path><path d="M324.4 502L376.7 505L341.4 441Z" fill="#081a28" stroke="#081a28"></path><path d="M341.4 441L376.7 505L420.7 431Z" fill="#081a28" stroke="#081a28"></path><path d="M505.3 272L449 210L444 223Z" fill="#0c2435" stroke="#0c2435"></path><path d="M444 223L377.7 203L394.7 257Z" fill="#081a28" stroke="#081a28"></path><path d="M376.7 505L386.7 515L451 473Z" fill="#205a7a" stroke="#205a7a"></path><path d="M377.7 203L312.4 266L394.7 257Z" fill="#297ea6" stroke="#297ea6"></path><path d="M394.7 257L312.4 266L357.7 336Z" fill="#297ea6" stroke="#297ea6"></path><path d="M634.9 319L583.6 267L547.3 347Z" fill="#205a7a" stroke="#205a7a"></path><path d="M505.3 272L512.3 161L449 210Z" fill="#15384f" stroke="#15384f"></path><path d="M605.6 475L613.9 405L546.3 397Z" fill="#0c2435" stroke="#0c2435"></path><path d="M582.6 380L634.9 319L547.3 347Z" fill="#205a7a" stroke="#205a7a"></path><path d="M449 210L377.7 203L444 223Z" fill="#081a28" stroke="#081a28"></path><path d="M274.1 426L341.4 441L337.4 379Z" fill="#277297" stroke="#277297"></path><path d="M376.7 505L321.4 515L386.7 515Z" fill="#112e42" stroke="#112e42"></path><path d="M252.1 312L274.1 426L295.1 358Z" fill="#15384f" stroke="#15384f"></path><path d="M295.1 358L274.1 426L337.4 379Z" fill="#0c2435" stroke="#0c2435"></path><path d="M293.1 458L324.4 502L341.4 441Z" fill="#0c2435" stroke="#0c2435"></path><path d="M673.1 447L627.9 396L613.9 405Z" fill="#112e42" stroke="#112e42"></path><path d="M613.9 405L627.9 396L582.6 380Z" fill="#205a7a" stroke="#205a7a"></path><path d="M296.1 543L321.4 515L293.1 458Z" fill="#00101c" stroke="#00101c"></path><path d="M293.1 458L321.4 515L324.4 502Z" fill="#277297" stroke="#277297"></path><path d="M324.4 502L321.4 515L376.7 505Z" fill="#081a28" stroke="#081a28"></path><path d="M544.6 560L605.6 475L507.3 491Z" fill="#1d4e6b" stroke="#1d4e6b"></path><path d="M507.3 491L605.6 475L538.6 399Z" fill="#205a7a" stroke="#205a7a"></path><path d="M627.9 396L634.9 319L582.6 380Z" fill="#297ea6" stroke="#297ea6"></path><path d="M280.1 244L252.1 312L312.4 266Z" fill="#15384f" stroke="#15384f"></path><path d="M312.4 266L252.1 312L295.1 358Z" fill="#112e42" stroke="#112e42"></path><path d="M303.4 209L280.1 244L312.4 266Z" fill="#0c2435" stroke="#0c2435"></path><path d="M377.7 203L303.4 209L312.4 266Z" fill="#081a28" stroke="#081a28"></path><path d="M413 600L432 577L393.7 600Z" fill="#19435d" stroke="#19435d"></path><path d="M386.7 515L432 577L451 473Z" fill="#246688" stroke="#246688"></path><path d="M563.6 181L505.3 272L583.6 267Z" fill="#15384f" stroke="#15384f"></path><path d="M563.6 181L512.3 161L505.3 272Z" fill="#081a28" stroke="#081a28"></path><path d="M436 114L379.7 125L377.7 203Z" fill="#1d4e6b" stroke="#1d4e6b"></path><path d="M377.7 203L299.4 180L303.4 209Z" fill="#112e42" stroke="#112e42"></path><path d="M525.3 572L544.6 560L507.3 491Z" fill="#15384f" stroke="#15384f"></path><path d="M613.6 214L563.6 181L583.6 267Z" fill="#277297" stroke="#277297"></path><path d="M432 577L525.3 572L507.3 491Z" fill="#081a28" stroke="#081a28"></path><path d="M634.9 319L613.6 214L583.6 267Z" fill="#246688" stroke="#246688"></path><path d="M204.9 502L296.1 543L293.1 458Z" fill="#19435d" stroke="#19435d"></path><path d="M321.4 515L393.7 600L386.7 515Z" fill="#1d4e6b" stroke="#1d4e6b"></path><path d="M201.9 437L293.1 458L274.1 426Z" fill="#205a7a" stroke="#205a7a"></path><path d="M413 600L474.3 600L432 577Z" fill="#246688" stroke="#246688"></path><path d="M432 577L474.3 600L525.3 572Z" fill="#246688" stroke="#246688"></path><path d="M393.7 600L432 577L386.7 515Z" fill="#297ea6" stroke="#297ea6"></path><path d="M319.4 149L299.4 180L377.7 203Z" fill="#112e42" stroke="#112e42"></path><path d="M303.4 209L273.1 157L280.1 244Z" fill="#19435d" stroke="#19435d"></path><path d="M280.1 244L217.9 242L252.1 312Z" fill="#205a7a" stroke="#205a7a"></path><path d="M296.1 543L393.7 600L321.4 515Z" fill="#277297" stroke="#277297"></path><path d="M656.9 512L673.1 447L605.6 475Z" fill="#00101c" stroke="#00101c"></path><path d="M605.6 475L673.1 447L613.9 405Z" fill="#19435d" stroke="#19435d"></path><path d="M627.9 396L716.1 355L634.9 319Z" fill="#205a7a" stroke="#205a7a"></path><path d="M707.1 241L633.9 200L613.6 214Z" fill="#15384f" stroke="#15384f"></path><path d="M436 114L377.7 203L449 210Z" fill="#15384f" stroke="#15384f"></path><path d="M379.7 125L319.4 149L377.7 203Z" fill="#112e42" stroke="#112e42"></path><path d="M489.3 105L436 114L512.3 161Z" fill="#297ea6" stroke="#297ea6"></path><path d="M613.6 214L633.9 200L563.6 181Z" fill="#112e42" stroke="#112e42"></path><path d="M707.1 241L613.6 214L634.9 319Z" fill="#1d4e6b" stroke="#1d4e6b"></path><path d="M489.3 105L512.3 161L538.6 95Z" fill="#081a28" stroke="#081a28"></path><path d="M512.3 161L436 114L449 210Z" fill="#15384f" stroke="#15384f"></path><path d="M157.9 328L201.9 437L252.1 312Z" fill="#15384f" stroke="#15384f"></path><path d="M252.1 312L201.9 437L274.1 426Z" fill="#277297" stroke="#277297"></path><path d="M544.6 560L656.9 512L605.6 475Z" fill="#00101c" stroke="#00101c"></path><path d="M664.9 541L656.9 512L544.6 560Z" fill="#1d4e6b" stroke="#1d4e6b"></path><path d="M571.6 600L544.6 560L525.3 572Z" fill="#246688" stroke="#246688"></path><path d="M273.1 157L303.4 209L299.4 180Z" fill="#297ea6" stroke="#297ea6"></path><path d="M273.1 157L217.9 242L280.1 244Z" fill="#297ea6" stroke="#297ea6"></path><path d="M538.6 95L512.3 161L563.6 181Z" fill="#081a28" stroke="#081a28"></path><path d="M474.3 600L571.6 600L525.3 572Z" fill="#00101c" stroke="#00101c"></path><path d="M319.4 149L273.1 157L299.4 180Z" fill="#19435d" stroke="#19435d"></path><path d="M268.1 94L273.1 157L319.4 149Z" fill="#15384f" stroke="#15384f"></path><path d="M735.1 443L716.1 355L673.1 447Z" fill="#246688" stroke="#246688"></path><path d="M673.1 447L716.1 355L627.9 396Z" fill="#081a28" stroke="#081a28"></path><path d="M716.1 355L713.1 319L634.9 319Z" fill="#0c2435" stroke="#0c2435"></path><path d="M201.9 437L204.9 502L293.1 458Z" fill="#081a28" stroke="#081a28"></path><path d="M296.1 543L297.4 600L393.7 600Z" fill="#205a7a" stroke="#205a7a"></path><path d="M245.1 600L297.4 600L296.1 543Z" fill="#112e42" stroke="#112e42"></path><path d="M571.6 600L664.9 541L544.6 560Z" fill="#205a7a" stroke="#205a7a"></path><path d="M656.9 512L735.1 443L673.1 447Z" fill="#0c2435" stroke="#0c2435"></path><path d="M561.6 84L538.6 95L563.6 181Z" fill="#112e42" stroke="#112e42"></path><path d="M473 46L362.7 73L436 114Z" fill="#277297" stroke="#277297"></path><path d="M160.9 292L252.1 312L217.9 242Z" fill="#19435d" stroke="#19435d"></path><path d="M160.9 292L157.9 328L252.1 312Z" fill="#081a28" stroke="#081a28"></path><path d="M118.6 452L189.9 520L204.9 502Z" fill="#19435d" stroke="#19435d"></path><path d="M751.4 285L707.1 241L713.1 319Z" fill="#19435d" stroke="#19435d"></path><path d="M713.1 319L707.1 241L634.9 319Z" fill="#00101c" stroke="#00101c"></path><path d="M640.9 132L561.6 84L563.6 181Z" fill="#112e42" stroke="#112e42"></path><path d="M99.6 239L160.9 292L217.9 242Z" fill="#112e42" stroke="#112e42"></path><path d="M126.6 314L148.6 342L157.9 328Z" fill="#277297" stroke="#277297"></path><path d="M157.9 328L148.6 342L201.9 437Z" fill="#00101c" stroke="#00101c"></path><path d="M118.6 452L204.9 502L201.9 437Z" fill="#081a28" stroke="#081a28"></path><path d="M204.9 502L245.1 600L296.1 543Z" fill="#1d4e6b" stroke="#1d4e6b"></path><path d="M765.4 521L735.1 443L656.9 512Z" fill="#246688" stroke="#246688"></path><path d="M794.7 349L751.4 285L713.1 319Z" fill="#00101c" stroke="#00101c"></path><path d="M436 114L362.7 73L379.7 125Z" fill="#00101c" stroke="#00101c"></path><path d="M379.7 125L362.7 73L319.4 149Z" fill="#081a28" stroke="#081a28"></path><path d="M473 46L436 114L489.3 105Z" fill="#297ea6" stroke="#297ea6"></path><path d="M640.9 132L563.6 181L633.9 200Z" fill="#112e42" stroke="#112e42"></path><path d="M538.6 95L510.3 63L489.3 105Z" fill="#081a28" stroke="#081a28"></path><path d="M677.9 147L640.9 132L633.9 200Z" fill="#277297" stroke="#277297"></path><path d="M189.9 520L245.1 600L204.9 502Z" fill="#19435d" stroke="#19435d"></path><path d="M561.6 84L510.3 63L538.6 95Z" fill="#00101c" stroke="#00101c"></path><path d="M794.7 349L713.1 319L716.1 355Z" fill="#00101c" stroke="#00101c"></path><path d="M724.1 172L677.9 147L633.9 200Z" fill="#205a7a" stroke="#205a7a"></path><path d="M640.9 132L638.9 67L561.6 84Z" fill="#277297" stroke="#277297"></path><path d="M724.1 172L633.9 200L707.1 241Z" fill="#19435d" stroke="#19435d"></path><path d="M571.6 600L664.9 600L664.9 541Z" fill="#081a28" stroke="#081a28"></path><path d="M664.9 541L765.4 521L656.9 512Z" fill="#1d4e6b" stroke="#1d4e6b"></path><path d="M451 0L473 46L548.3 0Z" fill="#0c2435" stroke="#0c2435"></path><path d="M510.3 63L473 46L489.3 105Z" fill="#00101c" stroke="#00101c"></path><path d="M160.9 292L126.6 314L157.9 328Z" fill="#15384f" stroke="#15384f"></path><path d="M99.6 406L118.6 452L201.9 437Z" fill="#00101c" stroke="#00101c"></path><path d="M99.6 239L126.6 314L160.9 292Z" fill="#00101c" stroke="#00101c"></path><path d="M189.9 520L221.9 600L245.1 600Z" fill="#277297" stroke="#277297"></path><path d="M339.4 58L268.1 94L319.4 149Z" fill="#19435d" stroke="#19435d"></path><path d="M273.1 157L165.9 168L217.9 242Z" fill="#0c2435" stroke="#0c2435"></path><path d="M339.4 58L319.4 149L362.7 73Z" fill="#19435d" stroke="#19435d"></path><path d="M385.7 0L339.4 58L362.7 73Z" fill="#277297" stroke="#277297"></path><path d="M794.4 459L766.4 421L735.1 443Z" fill="#15384f" stroke="#15384f"></path><path d="M735.1 443L766.4 421L716.1 355Z" fill="#0c2435" stroke="#0c2435"></path><path d="M664.9 600L676.1 600L664.9 541Z" fill="#19435d" stroke="#19435d"></path><path d="M676.1 600L707.1 568L664.9 541Z" fill="#19435d" stroke="#19435d"></path><path d="M99.6 406L201.9 437L148.6 342Z" fill="#19435d" stroke="#19435d"></path><path d="M189.9 520L136.6 600L221.9 600Z" fill="#205a7a" stroke="#205a7a"></path><path d="M794.4 459L782.4 383L766.4 421Z" fill="#081a28" stroke="#081a28"></path><path d="M766.4 421L782.4 383L716.1 355Z" fill="#277297" stroke="#277297"></path><path d="M777.4 219L707.1 241L751.4 285Z" fill="#205a7a" stroke="#205a7a"></path><path d="M777.4 219L724.1 172L707.1 241Z" fill="#0c2435" stroke="#0c2435"></path><path d="M677.9 147L674.1 108L640.9 132Z" fill="#00101c" stroke="#00101c"></path><path d="M213.9 95L165.9 168L273.1 157Z" fill="#1d4e6b" stroke="#1d4e6b"></path><path d="M724.1 172L674.1 108L677.9 147Z" fill="#205a7a" stroke="#205a7a"></path><path d="M561.6 84L548.3 0L510.3 63Z" fill="#19435d" stroke="#19435d"></path><path d="M126.6 314L99.6 406L148.6 342Z" fill="#00101c" stroke="#00101c"></path><path d="M64.3 406L99.6 406L43.3 329Z" fill="#205a7a" stroke="#205a7a"></path><path d="M782.4 383L794.7 349L716.1 355Z" fill="#19435d" stroke="#19435d"></path><path d="M268.1 94L213.9 95L273.1 157Z" fill="#081a28" stroke="#081a28"></path><path d="M238.1 30L213.9 95L268.1 94Z" fill="#277297" stroke="#277297"></path><path d="M798.7 520L800.4 600L825.7 541Z" fill="#19435d" stroke="#19435d"></path><path d="M707.1 568L765.4 521L664.9 541Z" fill="#112e42" stroke="#112e42"></path><path d="M782.4 383L849.7 336L794.7 349Z" fill="#1d4e6b" stroke="#1d4e6b"></path><path d="M674.1 108L638.9 67L640.9 132Z" fill="#00101c" stroke="#00101c"></path><path d="M765.4 521L794.4 459L735.1 443Z" fill="#15384f" stroke="#15384f"></path><path d="M846.7 230L777.4 219L751.4 285Z" fill="#0c2435" stroke="#0c2435"></path><path d="M780.4 86L689.1 51L674.1 108Z" fill="#297ea6" stroke="#297ea6"></path><path d="M674.1 108L689.1 51L638.9 67Z" fill="#081a28" stroke="#081a28"></path><path d="M548.3 0L473 46L510.3 63Z" fill="#112e42" stroke="#112e42"></path><path d="M473 46L385.7 0L362.7 73Z" fill="#277297" stroke="#277297"></path><path d="M339.4 58L238.1 30L268.1 94Z" fill="#1d4e6b" stroke="#1d4e6b"></path><path d="M86.3 216L99.6 239L91.6 195Z" fill="#1d4e6b" stroke="#1d4e6b"></path><path d="M165.9 168L99.6 239L217.9 242Z" fill="#0c2435" stroke="#0c2435"></path><path d="M451 0L385.7 0L473 46Z" fill="#00101c" stroke="#00101c"></path><path d="M846.7 230L782.4 198L777.4 219Z" fill="#246688" stroke="#246688"></path><path d="M777.4 219L782.4 198L724.1 172Z" fill="#0c2435" stroke="#0c2435"></path><path d="M559.6 0L548.3 0L561.6 84Z" fill="#00101c" stroke="#00101c"></path><path d="M43.3 329L99.6 406L126.6 314Z" fill="#297ea6" stroke="#297ea6"></path><path d="M99.6 406L64.3 406L118.6 452Z" fill="#297ea6" stroke="#297ea6"></path><path d="M100.6 549L136.6 600L189.9 520Z" fill="#1d4e6b" stroke="#1d4e6b"></path><path d="M238.1 30L172.9 97L213.9 95Z" fill="#081a28" stroke="#081a28"></path><path d="M213.9 95L172.9 97L165.9 168Z" fill="#1d4e6b" stroke="#1d4e6b"></path><path d="M385.7 0L332.4 0L339.4 58Z" fill="#112e42" stroke="#112e42"></path><path d="M638.9 67L559.6 0L561.6 84Z" fill="#0c2435" stroke="#0c2435"></path><path d="M798.7 520L765.4 521L800.4 600Z" fill="#112e42" stroke="#112e42"></path><path d="M765.4 521L798.7 520L794.4 459Z" fill="#15384f" stroke="#15384f"></path><path d="M900 411L849.7 336L782.4 383Z" fill="#246688" stroke="#246688"></path><path d="M100.6 549L189.9 520L118.6 452Z" fill="#081a28" stroke="#081a28"></path><path d="M91.6 195L99.6 239L165.9 168Z" fill="#205a7a" stroke="#205a7a"></path><path d="M99.6 239L70.3 260L126.6 314Z" fill="#00101c" stroke="#00101c"></path><path d="M86.3 216L70.3 260L99.6 239Z" fill="#205a7a" stroke="#205a7a"></path><path d="M73.3 531L100.6 549L118.6 452Z" fill="#246688" stroke="#246688"></path><path d="M119.6 136L91.6 195L165.9 168Z" fill="#00101c" stroke="#00101c"></path><path d="M0 266L28.3 276L70.3 260Z" fill="#19435d" stroke="#19435d"></path><path d="M332.4 0L238.1 30L339.4 58Z" fill="#112e42" stroke="#112e42"></path><path d="M163.6 0L149.6 99L172.9 97Z" fill="#1d4e6b" stroke="#1d4e6b"></path><path d="M172.9 97L149.6 99L165.9 168Z" fill="#205a7a" stroke="#205a7a"></path><path d="M149.6 99L119.6 136L165.9 168Z" fill="#081a28" stroke="#081a28"></path><path d="M780.4 86L674.1 108L724.1 172Z" fill="#15384f" stroke="#15384f"></path><path d="M638.9 67L656.9 0L559.6 0Z" fill="#246688" stroke="#246688"></path><path d="M28.3 276L43.3 329L70.3 260Z" fill="#19435d" stroke="#19435d"></path><path d="M70.3 260L43.3 329L126.6 314Z" fill="#205a7a" stroke="#205a7a"></path><path d="M36.3 513L73.3 531L118.6 452Z" fill="#297ea6" stroke="#297ea6"></path><path d="M36.3 513L118.6 452L64.3 406Z" fill="#277297" stroke="#277297"></path><path d="M100.6 549L95.3 600L136.6 600Z" fill="#0c2435" stroke="#0c2435"></path><path d="M840.7 459L782.4 383L794.4 459Z" fill="#00101c" stroke="#00101c"></path><path d="M794.7 349L849.7 336L751.4 285Z" fill="#277297" stroke="#277297"></path><path d="M798.7 520L840.7 459L794.4 459Z" fill="#297ea6" stroke="#297ea6"></path><path d="M332.4 0L241.1 0L238.1 30Z" fill="#15384f" stroke="#15384f"></path><path d="M238.1 30L163.6 0L172.9 97Z" fill="#277297" stroke="#277297"></path><path d="M800.4 600L765.4 521L707.1 568Z" fill="#205a7a" stroke="#205a7a"></path><path d="M798.7 520L825.7 541L840.7 459Z" fill="#246688" stroke="#246688"></path><path d="M73.3 531L95.3 600L100.6 549Z" fill="#0c2435" stroke="#0c2435"></path><path d="M716.1 0L656.9 0L689.1 51Z" fill="#081a28" stroke="#081a28"></path><path d="M689.1 51L656.9 0L638.9 67Z" fill="#297ea6" stroke="#297ea6"></path><path d="M849.7 336L846.7 230L751.4 285Z" fill="#205a7a" stroke="#205a7a"></path><path d="M809.4 121L780.4 86L724.1 172Z" fill="#205a7a" stroke="#205a7a"></path><path d="M676.1 600L800.4 600L707.1 568Z" fill="#00101c" stroke="#00101c"></path><path d="M0 267L28.3 276L0 266Z" fill="#00101c" stroke="#00101c"></path><path d="M0 453L36.3 513L64.3 406Z" fill="#277297" stroke="#277297"></path><path d="M70.3 260L86.3 216L0 266Z" fill="#19435d" stroke="#19435d"></path><path d="M241.1 0L218.9 0L238.1 30Z" fill="#15384f" stroke="#15384f"></path><path d="M76.3 71L38.3 139L119.6 136Z" fill="#205a7a" stroke="#205a7a"></path><path d="M0 417L64.3 406L43.3 329Z" fill="#19435d" stroke="#19435d"></path><path d="M73.3 531L0 600L95.3 600Z" fill="#081a28" stroke="#081a28"></path><path d="M809.4 121L724.1 172L782.4 198Z" fill="#1d4e6b" stroke="#1d4e6b"></path><path d="M864.7 156L809.4 121L782.4 198Z" fill="#00101c" stroke="#00101c"></path><path d="M28.3 276L0 322L43.3 329Z" fill="#00101c" stroke="#00101c"></path><path d="M0 322L0 417L43.3 329Z" fill="#0c2435" stroke="#0c2435"></path><path d="M0 417L0 453L64.3 406Z" fill="#246688" stroke="#246688"></path><path d="M28.3 276L0 267L0 322Z" fill="#00101c" stroke="#00101c"></path><path d="M0 266L86.3 216L0 158Z" fill="#246688" stroke="#246688"></path><path d="M86.3 216L91.6 195L0 158Z" fill="#15384f" stroke="#15384f"></path><path d="M38.3 139L91.6 195L119.6 136Z" fill="#15384f" stroke="#15384f"></path><path d="M766.4 0L716.1 0L689.1 51Z" fill="#1d4e6b" stroke="#1d4e6b"></path><path d="M766.4 0L689.1 51L780.4 86Z" fill="#19435d" stroke="#19435d"></path><path d="M900 411L900 332L849.7 336Z" fill="#00101c" stroke="#00101c"></path><path d="M849.7 336L900 276L846.7 230Z" fill="#1d4e6b" stroke="#1d4e6b"></path><path d="M864.7 156L829.7 104L809.4 121Z" fill="#15384f" stroke="#15384f"></path><path d="M900 411L782.4 383L840.7 459Z" fill="#15384f" stroke="#15384f"></path><path d="M900 499L900 411L840.7 459Z" fill="#112e42" stroke="#112e42"></path><path d="M900 499L840.7 459L825.7 541Z" fill="#081a28" stroke="#081a28"></path><path d="M900 332L900 321L849.7 336Z" fill="#297ea6" stroke="#297ea6"></path><path d="M218.9 0L163.6 0L238.1 30Z" fill="#15384f" stroke="#15384f"></path><path d="M900 321L900 276L849.7 336Z" fill="#246688" stroke="#246688"></path><path d="M76.3 71L119.6 136L149.6 99Z" fill="#15384f" stroke="#15384f"></path><path d="M864.7 156L782.4 198L846.7 230Z" fill="#297ea6" stroke="#297ea6"></path><path d="M809.4 121L829.7 104L780.4 86Z" fill="#00101c" stroke="#00101c"></path><path d="M800.4 600L847.7 600L825.7 541Z" fill="#246688" stroke="#246688"></path><path d="M900 211L864.7 156L846.7 230Z" fill="#205a7a" stroke="#205a7a"></path><path d="M102.3 0L76.3 71L149.6 99Z" fill="#112e42" stroke="#112e42"></path><path d="M900 549L900 499L825.7 541Z" fill="#19435d" stroke="#19435d"></path><path d="M0 453L0 546L36.3 513Z" fill="#0c2435" stroke="#0c2435"></path><path d="M36.3 513L0 546L73.3 531Z" fill="#1d4e6b" stroke="#1d4e6b"></path><path d="M900 276L900 211L846.7 230Z" fill="#277297" stroke="#277297"></path><path d="M824.7 48L766.4 0L780.4 86Z" fill="#205a7a" stroke="#205a7a"></path><path d="M824.7 48L780.4 86L829.7 104Z" fill="#0c2435" stroke="#0c2435"></path><path d="M824.7 48L829.7 104L900 49Z" fill="#297ea6" stroke="#297ea6"></path><path d="M847.7 600L900 549L825.7 541Z" fill="#1d4e6b" stroke="#1d4e6b"></path><path d="M0 129L0 158L38.3 139Z" fill="#297ea6" stroke="#297ea6"></path><path d="M38.3 139L0 158L91.6 195Z" fill="#081a28" stroke="#081a28"></path><path d="M900 156L829.7 104L864.7 156Z" fill="#1d4e6b" stroke="#1d4e6b"></path><path d="M163.6 0L102.3 0L149.6 99Z" fill="#297ea6" stroke="#297ea6"></path><path d="M76.3 71L0 129L38.3 139Z" fill="#112e42" stroke="#112e42"></path><path d="M900 211L900 156L864.7 156Z" fill="#205a7a" stroke="#205a7a"></path><path d="M0 546L0 600L73.3 531Z" fill="#1d4e6b" stroke="#1d4e6b"></path><path d="M0 45L0 129L76.3 71Z" fill="#0c2435" stroke="#0c2435"></path><path d="M847.7 600L900 600L900 549Z" fill="#205a7a" stroke="#205a7a"></path><path d="M0 0L0 45L76.3 71Z" fill="#277297" stroke="#277297"></path><path d="M900 156L900 49L829.7 104Z" fill="#246688" stroke="#246688"></path><path d="M824.7 48L871.7 0L766.4 0Z" fill="#112e42" stroke="#112e42"></path><path d="M900 49L871.7 0L824.7 48Z" fill="#112e42" stroke="#112e42"></path><path d="M102.3 0L0 0L76.3 71Z" fill="#15384f" stroke="#15384f"></path><path d="M900 49L900 0L871.7 0Z" fill="#19435d" stroke="#19435d"></path></g></svg>